# xmcd CD database file
#
# Track frame offsets:
#	150
#	14287
#	41100
#	65777
#	83197
#	95880
#	119457
#	133725
#	151265
#	169702
#	188982
#	214752
#	232615
#	249347
#
# Disc length: 3578 seconds
#
# Revision: 0
# Processed by: cddbd v1.4PL0 Copyright (c) Steve Scherf et al.
# Submitted via: CDex 1.50Beta7
#
DISCID=be0df80e
DTITLE=Gloria Gaynor - I Am What I Am
DYEAR=1900
DGENRE=Blues
TTITLE0=Don't Go Soft On Me (Be Soft On Me Tonight)
TTITLE1=I Am What I Am
TTITLE2=Chain Of Whispers
TTITLE3=The Eye Of The Tiger
TTITLE4=Every Breath You Take
TTITLE5=Broken Wings
TTITLE6=What A Wonderful World
TTITLE7=I Want To Know What Love Is
TTITLE8=Everytime You Go Away
TTITLE9=Everybody Wants To Rule The World
TTITLE10=Careless Whisper
TTITLE11=The Heat Is On
TTITLE12=Suddenly
TTITLE13=The Power Of Love
EXTD=
EXTT0=
EXTT1=
EXTT2=
EXTT3=
EXTT4=
EXTT5=
EXTT6=
EXTT7=
EXTT8=
EXTT9=
EXTT10=
EXTT11=
EXTT12=
EXTT13=
PLAYORDER=
